<svg xmlns="http://www.w3.org/2000/svg" viewBox="0 0 120 120">
  <defs>
    <linearGradient id="bg" x1="0%" y1="0%" x2="100%" y2="100%">
      <stop offset="0%" style="stop-color:#FA8BFF"/>
      <stop offset="100%" style="stop-color:#2BD2FF"/>
    </linearGradient>
  </defs>
  <circle cx="60" cy="60" r="60" fill="url(#bg)"/>
  <!-- Hair -->
  <ellipse cx="60" cy="34" rx="28" ry="22" fill="#2C1810"/>
  <path d="M32 38 Q36 28 48 26 Q40 34 38 44 Z" fill="#2C1810"/>
  <path d="M88 38 Q84 28 72 26 Q80 34 82 44 Z" fill="#2C1810"/>
  <!-- Face -->
  <ellipse cx="60" cy="54" rx="24" ry="26" fill="#D4A574"/>
  <!-- Eyes -->
  <ellipse cx="50" cy="52" rx="3" ry="3.5" fill="#3D2415"/>
  <ellipse cx="70" cy="52" rx="3" ry="3.5" fill="#3D2415"/>
  <circle cx="51" cy="51" r="1.2" fill="white"/>
  <circle cx="71" cy="51" r="1.2" fill="white"/>
  <!-- Eyebrows -->
  <path d="M43 45 Q50 42 56 46" stroke="#2C1810" stroke-width="2" fill="none"/>
  <path d="M64 46 Q70 42 77 45" stroke="#2C1810" stroke-width="2" fill="none"/>
  <!-- Nose -->
  <path d="M57 55 Q60 61 63 55" stroke="#C4956A" stroke-width="1.2" fill="none"/>
  <!-- Mustache -->
  <path d="M48 64 Q54 62 60 66 Q66 62 72 64" stroke="#2C1810" stroke-width="1.8" fill="none"/>
  <!-- Smile -->
  <path d="M52 68 Q60 73 68 68" stroke="#A0604A" stroke-width="1.8" fill="none" stroke-linecap="round"/>
  <!-- Body/Shirt -->
  <path d="M30 95 Q32 82 60 80 Q88 82 90 95 L90 120 L30 120 Z" fill="#E85D4A"/>
</svg>
