<svg xmlns="http://www.w3.org/2000/svg" viewBox="0 0 120 120">
  <defs>
    <linearGradient id="bg" x1="0%" y1="0%" x2="100%" y2="100%">
      <stop offset="0%" style="stop-color:#FF9A8B"/>
      <stop offset="100%" style="stop-color:#FF6A88"/>
    </linearGradient>
  </defs>
  <circle cx="60" cy="60" r="60" fill="url(#bg)"/>
  <!-- Hair -->
  <ellipse cx="60" cy="38" rx="30" ry="28" fill="#5C3D2E"/>
  <ellipse cx="60" cy="52" rx="34" ry="20" fill="#5C3D2E"/>
  <!-- Face -->
  <ellipse cx="60" cy="55" rx="24" ry="26" fill="#FDDCB5"/>
  <!-- Eyes -->
  <ellipse cx="50" cy="52" rx="3" ry="3.5" fill="#3D2C1E"/>
  <ellipse cx="70" cy="52" rx="3" ry="3.5" fill="#3D2C1E"/>
  <circle cx="51.5" cy="51" r="1" fill="white"/>
  <circle cx="71.5" cy="51" r="1" fill="white"/>
  <!-- Eyebrows -->
  <path d="M44 46 Q50 43 56 46" stroke="#5C3D2E" stroke-width="1.5" fill="none"/>
  <path d="M64 46 Q70 43 76 46" stroke="#5C3D2E" stroke-width="1.5" fill="none"/>
  <!-- Nose -->
  <path d="M58 56 Q60 60 62 56" stroke="#E8C49A" stroke-width="1.2" fill="none"/>
  <!-- Smile -->
  <path d="M52 64 Q60 72 68 64" stroke="#D4756B" stroke-width="2" fill="none" stroke-linecap="round"/>
  <!-- Blush -->
  <circle cx="44" cy="62" r="5" fill="#FFB5B5" opacity="0.4"/>
  <circle cx="76" cy="62" r="5" fill="#FFB5B5" opacity="0.4"/>
  <!-- Hair bangs -->
  <path d="M30 42 Q38 28 50 32 Q42 38 36 48 Z" fill="#5C3D2E"/>
  <path d="M90 42 Q82 28 70 32 Q78 38 84 48 Z" fill="#5C3D2E"/>
  <!-- Body/Shirt -->
  <path d="M30 95 Q32 82 60 80 Q88 82 90 95 L90 120 L30 120 Z" fill="#E8A87C"/>
</svg>
