<svg xmlns="http://www.w3.org/2000/svg" viewBox="0 0 120 120">
  <defs>
    <linearGradient id="bg" x1="0%" y1="0%" x2="100%" y2="100%">
      <stop offset="0%" style="stop-color:#43E97B"/>
      <stop offset="100%" style="stop-color:#38F9D7"/>
    </linearGradient>
  </defs>
  <circle cx="60" cy="60" r="60" fill="url(#bg)"/>
  <!-- Hair -->
  <ellipse cx="60" cy="36" rx="30" ry="26" fill="#1A1A2E"/>
  <rect x="30" y="34" width="60" height="24" rx="3" fill="#1A1A2E"/>
  <!-- Face -->
  <ellipse cx="60" cy="55" rx="23" ry="25" fill="#FDE8D0"/>
  <!-- Glasses -->
  <rect x="40" y="47" width="14" height="11" rx="3" stroke="#333" stroke-width="1.8" fill="none"/>
  <rect x="66" y="47" width="14" height="11" rx="3" stroke="#333" stroke-width="1.8" fill="none"/>
  <line x1="54" y1="52" x2="66" y2="52" stroke="#333" stroke-width="1.5"/>
  <!-- Eyes behind glasses -->
  <ellipse cx="47" cy="53" rx="2.5" ry="3" fill="#1A1A2E"/>
  <ellipse cx="73" cy="53" rx="2.5" ry="3" fill="#1A1A2E"/>
  <circle cx="48" cy="52" r="0.8" fill="white"/>
  <circle cx="74" cy="52" r="0.8" fill="white"/>
  <!-- Eyebrows -->
  <path d="M41 44 Q47 42 53 44" stroke="#1A1A2E" stroke-width="1.5" fill="none"/>
  <path d="M67 44 Q73 42 79 44" stroke="#1A1A2E" stroke-width="1.5" fill="none"/>
  <!-- Nose -->
  <path d="M58 58 Q60 61 62 58" stroke="#E8C49A" stroke-width="1" fill="none"/>
  <!-- Smile -->
  <path d="M53 65 Q60 70 67 65" stroke="#C4695A" stroke-width="1.8" fill="none" stroke-linecap="round"/>
  <!-- Bangs -->
  <path d="M34 38 Q42 26 56 32 Q48 36 42 44 Z" fill="#1A1A2E"/>
  <path d="M86 38 Q78 26 64 32 Q72 36 78 44 Z" fill="#1A1A2E"/>
  <!-- Body/Shirt -->
  <path d="M32 95 Q34 82 60 80 Q86 82 88 95 L88 120 L32 120 Z" fill="#2D8B72"/>
</svg>
