<?xml version="1.0" encoding="UTF-8"?><svg id="Layer_1" xmlns="http://www.w3.org/2000/svg" viewBox="0 0 225 100"><defs><style>.cls-1{fill:#54a69a;}.cls-1,.cls-2,.cls-3,.cls-4{stroke-width:0px;}.cls-2{fill:#1a3763;}.cls-3{fill:#fff;}.cls-4{fill:#fffefe;}</style></defs><rect class="cls-2" x="2.75" y="3" width="219.5" height="94"/><path class="cls-4" d="M162.95078,57.60674v3.83473h6.79509v2.87528h-6.79151v3.48793h7.58652v3.00741h-10.91994v-16.19347h10.5529v2.98813h-7.22305Z"/><path class="cls-4" d="M123.95994,70.80879h-.18967c-1.03241,0-2.06484-.00286-3.09721.00327-.14437.00086-.2136-.0366-.26511-.18678-.38382-1.11911-.78094-2.23334-1.16806-3.35126-.04462-.12887-.10233-.17604-.23949-.17566-1.88087.00523-3.76177.00544-5.64264-.00025-.14459-.00044-.20255.0476-.25144.18467-.39535,1.10831-.79954,2.21325-1.20128,3.31912-.02286.06292-.04784.12502-.07525.19641h-3.26509c.17218-.44723.33953-.88397.50835-1.32009,1.89403-4.89306,3.78903-9.78573,5.67897-14.68048.05814-.15058.12927-.19723.28379-.19563.83059.00859,1.66132.00649,2.49197.00144.12325-.00075.18556.0334.23407.15897,2.04459,5.29207,4.09334,10.58242,6.1412,15.87314.01934.04996.03367.102.05689.17314ZM116.19579,58.73799c-.0133-.00183-.02659-.00365-.03989-.00548-.67049,1.8734-1.34097,3.74681-2.01569,5.63203h4.04725c-.66733-1.88522-1.3295-3.75589-1.99167-5.62656Z"/><path class="cls-4" d="M97.97355,54.61896c.04802-.00476.08858-.01237.12913-.0123,2.17749.00413,4.35552-.01907,6.53225.02391,1.34685.0266,2.59094.43017,3.6392,1.323.81778.69653,1.27576,1.59272,1.43595,2.64402.14866.97567.10694,1.94204-.23472,2.87717-.46415,1.2704-1.39876,2.07406-2.62043,2.57378-.79975.32713-1.64104.46345-2.50168.47093-1.03827.00903-2.07665.00416-3.11499.0053-.0529.00006-.1058,0-.17858,0v6.28731h-3.08614v-16.19313ZM101.05655,61.69443c.03953.00462.06269.00971.08584.0097,1.02587-.00072,2.05206.0122,3.07744-.01086.34489-.00776.69598-.0776,1.02973-.17094.63271-.17695,1.09352-.55579,1.25361-1.22735.11048-.46343.11174-.92763-.00095-1.39089-.11965-.49188-.41043-.84382-.86714-1.06302-.37406-.17953-.77006-.28944-1.18065-.29746-1.10248-.02154-2.20538-.0212-3.30812-.02858-.0277-.00019-.05548.01098-.08977.01823v4.16117Z"/><path class="cls-4" d="M130.99637,70.81208h-3.09267c0-.07848,0-.15008,0-.22169,0-2.1417.00149-4.28342-.00415-6.42511-.0003-.11387-.03739-.24298-.09664-.3391-1.84858-2.99889-3.70206-5.99454-5.55462-8.9908-.04044-.0654-.07891-.1321-.1311-.21967.084-.00419.14083-.00946.19767-.00949,1.05025-.00049,2.10051.00259,3.15072-.00394.13805-.00086.20982.04778.28.16669,1.20147,2.03573,2.40765,4.06849,3.61293,6.10182.03369.05684.06896.11268.11576.18897.04936-.07854.09052-.14141.12917-.20589,1.21205-2.02191,2.42539-4.04299,3.63232-6.06816.08305-.13936.1713-.18473.32577-.18361,1.00866.00731,2.0174.00376,3.02611.00376h.2275c-.05489.09274-.09244.15891-.13249.22342-1.85778,2.99288-3.71677,5.98495-5.56986,8.98094-.0682.11026-.11118.25846-.1116.38916-.0068,2.12941-.00482,4.25885-.00482,6.38828v.22443Z"/><path class="cls-4" d="M201.76618,57.61225h-5.00354v13.19983h-3.09352v-13.18981h-4.98593v-3.00257h13.083v2.99255Z"/><polygon class="cls-4" points="153.17098 54.61971 153.17098 54.60207 151.49655 54.60207 147.34085 66.03239 142.9475 54.61971 141.98985 54.61971 138.90375 54.61971 138.90375 58.21617 138.90375 70.81208 141.98985 70.81208 141.98985 59.39831 145.78816 69.56115 148.64645 69.56115 152.45421 60.01351 152.45421 70.81208 155.54037 70.81208 155.54037 58.21617 155.54037 54.61971 153.17098 54.61971"/><polygon class="cls-4" points="183.73156 54.61971 183.73156 66.16677 176.66486 54.61971 173.83332 54.61971 173.83332 70.81208 176.66486 70.81208 176.66486 59.85468 183.73156 70.81208 186.56304 70.81208 186.56304 54.61971 183.73156 54.61971"/><path class="cls-4" d="M196.8379,40.98445c1.63847,2.57778,3.2716,5.14715,4.92829,7.75358h-.23968c-1.2051,0-2.41022-.00299-3.61528.00382-.14939.00084-.23096-.04576-.30943-.17738-1.38653-2.32586-2.77998-4.64734-4.16591-6.97359-.08697-.14598-.17986-.19776-.34305-.19525-.61878.00952-1.23777.00383-1.87832.00383v7.32417h-3.57968v-18.7255c.05943-.00587.10655-.01466.15364-.01457,2.52031.00477,5.04107-.01709,7.56076.02632,1.44117.02483,2.80266.40941,3.99132,1.30268,1.1706.87969,1.75933,2.09281,1.89661,3.55647.10154,1.08263.01067,2.14261-.44233,3.14049-.6137,1.35187-1.6744,2.18314-3.00907,2.67774-.30148.11172-.61347.19328-.94788.29719ZM191.21589,38.06572c.08605.00404.14713.00938.2082.0094,1.09513.00043,2.19031.0052,3.28537-.00308.30197-.00228.60595-.02703.90508-.07036,1.30776-.1894,1.9984-1.03897,1.93881-2.37471-.03811-.85437-.36124-1.53774-1.17142-1.85937-.36057-.14315-.75607-.25325-1.13903-.26516-1.30744-.04066-2.61636-.0312-3.92473-.03961-.03202-.00021-.06414.01418-.10229.02319v4.57971Z"/><path class="cls-4" d="M130.13532,48.73036h-3.56743v-7.64107h-7.72764v7.63404h-3.57576v-18.72203h3.5637v7.57029h7.72998v-7.57242h3.57716v18.73119Z"/><path class="cls-4" d="M150.74788,48.73803c-1.00831,0-1.98584,0-2.96338,0-.29617,0-.59268-.00874-.88835.00368-.14842.00624-.21368-.04431-.26404-.18966-.44847-1.29435-.90925-2.58419-1.35598-3.87917-.06096-.17671-.14006-.23112-.32174-.2305-2.16956.00737-4.33915.00655-6.50873.00111-.16097-.0004-.23808.04034-.29723.20625-.45756,1.28342-.9275,2.56215-1.39394,3.8422-.02892.07936-.06067.15762-.0925.23999h-3.78187c.0306-.08876.05497-.16796.08483-.2449,2.36666-6.09827,4.73427-12.19615,7.09774-18.29573.05939-.15328.12781-.21494.29685-.21323.97106.00981,1.94227.00851,2.91336.00097.15509-.0012.22606.04734.28434.19777,2.37075,6.1193,4.74629,12.23664,7.12084,18.35437.02255.05809.04006.11825.06979.20684ZM139.34858,41.27463h4.69593c-.77661-2.18672-1.54634-4.35403-2.33552-6.57614-.79986,2.22842-1.57656,4.39233-2.36042,6.57614Z"/><path class="cls-4" d="M103.36362,33.46529h-5.39008v-3.46576h14.39042v3.45232h-5.40924v15.27172h-3.5911v-15.25828Z"/><path class="cls-4" d="M152.94139,29.99576h3.5523v18.72779h-3.5523v-18.72779Z"/><path class="cls-4" d="M184.66818,48.45159l-2.78511-2.76932c.34422-.41557.65283-.86984.92033-1.36891.77678-1.44931,1.16518-3.09236,1.16518-4.92895,0-1.81169-.36893-3.43207-1.10692-4.86103-.73799-1.42878-1.81064-2.54268-3.21747-3.34156-1.40703-.79872-2.98664-1.19825-4.73883-1.19825-2.67597,0-4.85979.85045-6.55159,2.55093-1.6918,1.70074-2.53774,4.05404-2.53774,7.0599,0,1.58953.36249,3.09663,1.08766,4.52132.72511,1.42489,1.79091,2.54908,3.19794,3.37251,1.4069.82362,3.00405,1.23532,4.79064,1.23532,1.64856,0,3.18519-.37259,4.60936-1.11797.04364-.02284.08416-.04907.12721-.07257l2.98159,2.96467,2.05774-2.04608ZM174.89228,45.80172c-1.26488,0-2.34417-.27193-3.29977-.8313-.92066-.53883-1.59661-1.24986-2.06704-2.17409-.51879-1.01914-.77094-2.06656-.77094-3.20195,0-2.22587.55227-3.8631,1.68841-5.00523,1.14279-1.14867,2.56085-1.68373,4.46236-1.68373,1.24376,0,2.31733.26618,3.2821.81386.90977.51657,1.58386,1.21637,2.0604,2.13895.52636,1.01928.78236,2.17277.78236,3.52619,0,1.36254-.26823,2.52534-.81996,3.55498-.12727.23737-.2667.45804-.41822.6636l-2.8419-2.82576-2.05774,2.04608,2.53182,2.51748c-.79425.30847-1.62876.46093-2.53189.46093Z"/><path class="cls-3" d="M37.06415,23.53585c.83095-.04224,1.66275-.10344,2.49456-.03879,7.41301.0069,14.82688,0,22.23988.00345,3.33241.01552,6.78118.73527,9.53692,2.69454,2.32303,1.62483,3.9651,4.09612,4.82449,6.77687.53098,1.63862.81802,3.35482.86629,5.07619-.0069,7.33974.00259,14.68034-.00517,22.02008,5.35547,5.16411,10.72041,10.31873,16.07674,15.48198.17929.17671.41892.40254.3491.68096-.13016.24911-.45254.27152-.69906.29997-17.72915-.00517-35.45831-.00086-53.1866-.00172-3.11346.01724-6.30709-.44564-9.09817-1.89376-1.6231-.8387-3.07295-2.0222-4.1849-3.47377-1.86187-2.41354-2.79798-5.44253-3.00054-8.45859-.07327-.74216-.03534-1.48864-.02327-2.23166-.00172-8.21723.00172-16.43446-.00172-24.65169.0612-2.52042.78181-5.08308,2.3463-7.09063,1.5619-2.04289,3.86338-3.40136,6.27864-4.19611,1.67741-.55339,3.42808-.85853,5.18652-.99731ZM33.94637,30.35237c-1.17574.38358-2.25752,1.12316-2.92986,2.17305-.68958,1.07058-1.01196,2.3644-.97059,3.63237,0,3.57634-.00086,7.15183.00086,10.72817,3.12122.00086,6.24244.00345,9.36366-.00086v-5.12273c-.00948-.8456.36634-1.70758,1.06368-2.20408.70251-.5077,1.59811-.64045,2.44629-.61976,1.4214.00172,2.8428.00086,4.26506.00086.00603-2.98675-.00345-5.9735.00431-8.96026-3.23069-.01034-6.46138-.00086-9.69121-.00431-1.19298-.11464-2.41268.00603-3.55221.37755ZM53.49689,29.97052c-.01465,2.98934-.00431,5.97868-.00517,8.96801,1.50674.00259,3.01434,0,4.52107.00086.80595.00517,1.65069.18188,2.292.69648.63614.50253.97145,1.32227.96197,2.12391-.00172,1.70844-.01638,3.41688-.01034,5.12532,3.12467.00431,6.2502.00172,9.37487.00086v-10.89971c.02155-.86629-.11723-1.73947-.42237-2.55145-.42323-1.14643-1.29297-2.11098-2.37733-2.67041-1.4214-.73871-3.07554-.92835-4.65468-.78957-3.22638-.00259-6.45363.00603-9.68001-.00431ZM30.04679,53.10944c-.00259,3.7746,0,7.54834-.00086,11.32294.02672.89559.20084,1.80498.63355,2.59886.5146.97403,1.39209,1.72396,2.38423,2.18511,1.4283.66889,3.03761.87318,4.60037.80164,3.1738.00259,6.34846.00172,9.52227,0,0-2.98761.00345-5.97523-.00172-8.96284-1.5076-.00086-3.01434,0-4.52193,0-.80595-.00345-1.65241-.18188-2.29286-.69734-.63614-.50426-.968-1.32572-.95938-2.12736v-5.12101c-3.12122-.00172-6.24244-.00172-9.36366,0ZM61.24865,53.47664c-.00948,1.61104-.00259,3.22293-.00345,4.83397.02672.68786-.14998,1.41278-.6258,1.92911-.53184.56029-1.32917.80423-2.08685.79474-1.74119-.00776-3.48239.00948-5.22358-.00862-.03965.38875-.00948.78009-.0181,1.17143-.00345,2.56352.0069,5.12704-.00517,7.69056.73958.02758,1.48002.00431,2.22045.01207,7.40266-.00517,14.80533.00948,22.20799-.00776-3.18156-3.19535-6.38467-6.36829-9.56881-9.56192-2.30924-2.2739-4.56762-4.60124-6.89668-6.85358Z"/><path class="cls-1" d="M61.24865,53.47664c2.32906,2.25235,4.58744,4.57969,6.89668,6.85358,3.18414,3.19363,6.38725,6.36657,9.56881,9.56192-7.40266.01724-14.80533.00259-22.20799.00776-.74044-.00776-1.48088.01552-2.22045-.01207.01207-2.56352.00172-5.12704.00517-7.69056.00862-.39134-.02155-.78268.0181-1.17143,1.74119.0181,3.48239.00086,5.22358.00862.75768.00948,1.55501-.23446,2.08685-.79474.47581-.51632.65252-1.24125.6258-1.92911.00086-1.61104-.00603-3.22293.00345-4.83397Z"/></svg>
